<svg xmlns="http://www.w3.org/2000/svg" xmlns:xlink="http://www.w3.org/1999/xlink" width="25" height="2225" viewBox="0 0 25 2225">
  <defs>
    <clipPath id="clip-path">
      <rect width="25" height="2225" fill="none"/>
    </clipPath>
  </defs>
  <g id="Repeat_Grid_1" data-name="Repeat Grid 1" opacity="0.57" clip-path="url(#clip-path)">
    <g transform="translate(-68.5 -1120)">
      <line id="Line_5" data-name="Line 5" x2="25" transform="translate(68.5 1120.5)" fill="none" stroke="#282828" stroke-width="1"/>
    </g>
    <g transform="translate(-68.5 -1094)">
      <line id="Line_5-2" data-name="Line 5" x2="25" transform="translate(68.5 1120.5)" fill="none" stroke="#282828" stroke-width="1"/>
    </g>
    <g transform="translate(-68.5 -1068)">
      <line id="Line_5-3" data-name="Line 5" x2="25" transform="translate(68.5 1120.5)" fill="none" stroke="#282828" stroke-width="1"/>
    </g>
    <g transform="translate(-68.5 -1042)">
      <line id="Line_5-4" data-name="Line 5" x2="25" transform="translate(68.5 1120.5)" fill="none" stroke="#282828" stroke-width="1"/>
    </g>
    <g transform="translate(-68.5 -1016)">
      <line id="Line_5-5" data-name="Line 5" x2="25" transform="translate(68.5 1120.5)" fill="none" stroke="#282828" stroke-width="1"/>
    </g>
    <g transform="translate(-68.5 -990)">
      <line id="Line_5-6" data-name="Line 5" x2="25" transform="translate(68.5 1120.5)" fill="none" stroke="#282828" stroke-width="1"/>
    </g>
    <g transform="translate(-68.5 -964)">
      <line id="Line_5-7" data-name="Line 5" x2="25" transform="translate(68.5 1120.5)" fill="none" stroke="#282828" stroke-width="1"/>
    </g>
    <g transform="translate(-68.5 -938)">
      <line id="Line_5-8" data-name="Line 5" x2="25" transform="translate(68.5 1120.5)" fill="none" stroke="#282828" stroke-width="1"/>
    </g>
    <g transform="translate(-68.5 -912)">
      <line id="Line_5-9" data-name="Line 5" x2="25" transform="translate(68.5 1120.5)" fill="none" stroke="#282828" stroke-width="1"/>
    </g>
    <g transform="translate(-68.5 -886)">
      <line id="Line_5-10" data-name="Line 5" x2="25" transform="translate(68.5 1120.5)" fill="none" stroke="#282828" stroke-width="1"/>
    </g>
    <g transform="translate(-68.5 -860)">
      <line id="Line_5-11" data-name="Line 5" x2="25" transform="translate(68.5 1120.5)" fill="none" stroke="#282828" stroke-width="1"/>
    </g>
    <g transform="translate(-68.5 -834)">
      <line id="Line_5-12" data-name="Line 5" x2="25" transform="translate(68.5 1120.5)" fill="none" stroke="#282828" stroke-width="1"/>
    </g>
    <g transform="translate(-68.5 -808)">
      <line id="Line_5-13" data-name="Line 5" x2="25" transform="translate(68.5 1120.5)" fill="none" stroke="#282828" stroke-width="1"/>
    </g>
    <g transform="translate(-68.5 -782)">
      <line id="Line_5-14" data-name="Line 5" x2="25" transform="translate(68.5 1120.5)" fill="none" stroke="#282828" stroke-width="1"/>
    </g>
    <g transform="translate(-68.5 -756)">
      <line id="Line_5-15" data-name="Line 5" x2="25" transform="translate(68.5 1120.5)" fill="none" stroke="#282828" stroke-width="1"/>
    </g>
    <g transform="translate(-68.5 -730)">
      <line id="Line_5-16" data-name="Line 5" x2="25" transform="translate(68.5 1120.5)" fill="none" stroke="#282828" stroke-width="1"/>
    </g>
    <g transform="translate(-68.5 -704)">
      <line id="Line_5-17" data-name="Line 5" x2="25" transform="translate(68.5 1120.5)" fill="none" stroke="#282828" stroke-width="1"/>
    </g>
    <g transform="translate(-68.5 -678)">
      <line id="Line_5-18" data-name="Line 5" x2="25" transform="translate(68.5 1120.5)" fill="none" stroke="#282828" stroke-width="1"/>
    </g>
    <g transform="translate(-68.5 -652)">
      <line id="Line_5-19" data-name="Line 5" x2="25" transform="translate(68.5 1120.5)" fill="none" stroke="#282828" stroke-width="1"/>
    </g>
    <g transform="translate(-68.5 -626)">
      <line id="Line_5-20" data-name="Line 5" x2="25" transform="translate(68.5 1120.5)" fill="none" stroke="#282828" stroke-width="1"/>
    </g>
    <g transform="translate(-68.5 -600)">
      <line id="Line_5-21" data-name="Line 5" x2="25" transform="translate(68.5 1120.5)" fill="none" stroke="#282828" stroke-width="1"/>
    </g>
    <g transform="translate(-68.5 -574)">
      <line id="Line_5-22" data-name="Line 5" x2="25" transform="translate(68.5 1120.5)" fill="none" stroke="#282828" stroke-width="1"/>
    </g>
    <g transform="translate(-68.5 -548)">
      <line id="Line_5-23" data-name="Line 5" x2="25" transform="translate(68.5 1120.5)" fill="none" stroke="#282828" stroke-width="1"/>
    </g>
    <g transform="translate(-68.5 -522)">
      <line id="Line_5-24" data-name="Line 5" x2="25" transform="translate(68.5 1120.5)" fill="none" stroke="#282828" stroke-width="1"/>
    </g>
    <g transform="translate(-68.5 -496)">
      <line id="Line_5-25" data-name="Line 5" x2="25" transform="translate(68.5 1120.5)" fill="none" stroke="#282828" stroke-width="1"/>
    </g>
    <g transform="translate(-68.5 -470)">
      <line id="Line_5-26" data-name="Line 5" x2="25" transform="translate(68.5 1120.5)" fill="none" stroke="#282828" stroke-width="1"/>
    </g>
    <g transform="translate(-68.5 -444)">
      <line id="Line_5-27" data-name="Line 5" x2="25" transform="translate(68.5 1120.5)" fill="none" stroke="#282828" stroke-width="1"/>
    </g>
    <g transform="translate(-68.5 -418)">
      <line id="Line_5-28" data-name="Line 5" x2="25" transform="translate(68.5 1120.5)" fill="none" stroke="#282828" stroke-width="1"/>
    </g>
    <g transform="translate(-68.5 -392)">
      <line id="Line_5-29" data-name="Line 5" x2="25" transform="translate(68.5 1120.5)" fill="none" stroke="#282828" stroke-width="1"/>
    </g>
    <g transform="translate(-68.5 -366)">
      <line id="Line_5-30" data-name="Line 5" x2="25" transform="translate(68.5 1120.5)" fill="none" stroke="#282828" stroke-width="1"/>
    </g>
    <g transform="translate(-68.5 -340)">
      <line id="Line_5-31" data-name="Line 5" x2="25" transform="translate(68.5 1120.5)" fill="none" stroke="#282828" stroke-width="1"/>
    </g>
    <g transform="translate(-68.5 -314)">
      <line id="Line_5-32" data-name="Line 5" x2="25" transform="translate(68.5 1120.5)" fill="none" stroke="#282828" stroke-width="1"/>
    </g>
    <g transform="translate(-68.5 -288)">
      <line id="Line_5-33" data-name="Line 5" x2="25" transform="translate(68.5 1120.5)" fill="none" stroke="#282828" stroke-width="1"/>
    </g>
    <g transform="translate(-68.5 -262)">
      <line id="Line_5-34" data-name="Line 5" x2="25" transform="translate(68.5 1120.5)" fill="none" stroke="#282828" stroke-width="1"/>
    </g>
    <g transform="translate(-68.5 -236)">
      <line id="Line_5-35" data-name="Line 5" x2="25" transform="translate(68.5 1120.5)" fill="none" stroke="#282828" stroke-width="1"/>
    </g>
    <g transform="translate(-68.5 -210)">
      <line id="Line_5-36" data-name="Line 5" x2="25" transform="translate(68.5 1120.5)" fill="none" stroke="#282828" stroke-width="1"/>
    </g>
    <g transform="translate(-68.5 -184)">
      <line id="Line_5-37" data-name="Line 5" x2="25" transform="translate(68.5 1120.5)" fill="none" stroke="#282828" stroke-width="1"/>
    </g>
    <g transform="translate(-68.5 -158)">
      <line id="Line_5-38" data-name="Line 5" x2="25" transform="translate(68.5 1120.5)" fill="none" stroke="#282828" stroke-width="1"/>
    </g>
    <g transform="translate(-68.5 -132)">
      <line id="Line_5-39" data-name="Line 5" x2="25" transform="translate(68.5 1120.5)" fill="none" stroke="#282828" stroke-width="1"/>
    </g>
    <g transform="translate(-68.5 -106)">
      <line id="Line_5-40" data-name="Line 5" x2="25" transform="translate(68.5 1120.5)" fill="none" stroke="#282828" stroke-width="1"/>
    </g>
    <g transform="translate(-68.5 -80)">
      <line id="Line_5-41" data-name="Line 5" x2="25" transform="translate(68.5 1120.5)" fill="none" stroke="#282828" stroke-width="1"/>
    </g>
    <g transform="translate(-68.5 -54)">
      <line id="Line_5-42" data-name="Line 5" x2="25" transform="translate(68.5 1120.5)" fill="none" stroke="#282828" stroke-width="1"/>
    </g>
    <g transform="translate(-68.5 -28)">
      <line id="Line_5-43" data-name="Line 5" x2="25" transform="translate(68.5 1120.5)" fill="none" stroke="#282828" stroke-width="1"/>
    </g>
    <g transform="translate(-68.5 -2)">
      <line id="Line_5-44" data-name="Line 5" x2="25" transform="translate(68.5 1120.5)" fill="none" stroke="#282828" stroke-width="1"/>
    </g>
    <g transform="translate(-68.5 24)">
      <line id="Line_5-45" data-name="Line 5" x2="25" transform="translate(68.5 1120.5)" fill="none" stroke="#282828" stroke-width="1"/>
    </g>
    <g transform="translate(-68.5 50)">
      <line id="Line_5-46" data-name="Line 5" x2="25" transform="translate(68.5 1120.5)" fill="none" stroke="#282828" stroke-width="1"/>
    </g>
    <g transform="translate(-68.5 76)">
      <line id="Line_5-47" data-name="Line 5" x2="25" transform="translate(68.5 1120.5)" fill="none" stroke="#282828" stroke-width="1"/>
    </g>
    <g transform="translate(-68.5 102)">
      <line id="Line_5-48" data-name="Line 5" x2="25" transform="translate(68.5 1120.5)" fill="none" stroke="#282828" stroke-width="1"/>
    </g>
    <g transform="translate(-68.5 128)">
      <line id="Line_5-49" data-name="Line 5" x2="25" transform="translate(68.5 1120.5)" fill="none" stroke="#282828" stroke-width="1"/>
    </g>
    <g transform="translate(-68.5 154)">
      <line id="Line_5-50" data-name="Line 5" x2="25" transform="translate(68.5 1120.5)" fill="none" stroke="#282828" stroke-width="1"/>
    </g>
    <g transform="translate(-68.5 180)">
      <line id="Line_5-51" data-name="Line 5" x2="25" transform="translate(68.5 1120.5)" fill="none" stroke="#282828" stroke-width="1"/>
    </g>
    <g transform="translate(-68.5 206)">
      <line id="Line_5-52" data-name="Line 5" x2="25" transform="translate(68.5 1120.5)" fill="none" stroke="#282828" stroke-width="1"/>
    </g>
    <g transform="translate(-68.5 232)">
      <line id="Line_5-53" data-name="Line 5" x2="25" transform="translate(68.5 1120.5)" fill="none" stroke="#282828" stroke-width="1"/>
    </g>
    <g transform="translate(-68.5 258)">
      <line id="Line_5-54" data-name="Line 5" x2="25" transform="translate(68.5 1120.5)" fill="none" stroke="#282828" stroke-width="1"/>
    </g>
    <g transform="translate(-68.5 284)">
      <line id="Line_5-55" data-name="Line 5" x2="25" transform="translate(68.5 1120.5)" fill="none" stroke="#282828" stroke-width="1"/>
    </g>
    <g transform="translate(-68.5 310)">
      <line id="Line_5-56" data-name="Line 5" x2="25" transform="translate(68.5 1120.5)" fill="none" stroke="#282828" stroke-width="1"/>
    </g>
    <g transform="translate(-68.5 336)">
      <line id="Line_5-57" data-name="Line 5" x2="25" transform="translate(68.5 1120.5)" fill="none" stroke="#282828" stroke-width="1"/>
    </g>
    <g transform="translate(-68.5 362)">
      <line id="Line_5-58" data-name="Line 5" x2="25" transform="translate(68.5 1120.5)" fill="none" stroke="#282828" stroke-width="1"/>
    </g>
    <g transform="translate(-68.5 388)">
      <line id="Line_5-59" data-name="Line 5" x2="25" transform="translate(68.5 1120.5)" fill="none" stroke="#282828" stroke-width="1"/>
    </g>
    <g transform="translate(-68.5 414)">
      <line id="Line_5-60" data-name="Line 5" x2="25" transform="translate(68.5 1120.5)" fill="none" stroke="#282828" stroke-width="1"/>
    </g>
    <g transform="translate(-68.5 440)">
      <line id="Line_5-61" data-name="Line 5" x2="25" transform="translate(68.5 1120.5)" fill="none" stroke="#282828" stroke-width="1"/>
    </g>
    <g transform="translate(-68.5 466)">
      <line id="Line_5-62" data-name="Line 5" x2="25" transform="translate(68.5 1120.5)" fill="none" stroke="#282828" stroke-width="1"/>
    </g>
    <g transform="translate(-68.5 492)">
      <line id="Line_5-63" data-name="Line 5" x2="25" transform="translate(68.5 1120.5)" fill="none" stroke="#282828" stroke-width="1"/>
    </g>
    <g transform="translate(-68.5 518)">
      <line id="Line_5-64" data-name="Line 5" x2="25" transform="translate(68.5 1120.5)" fill="none" stroke="#282828" stroke-width="1"/>
    </g>
    <g transform="translate(-68.5 544)">
      <line id="Line_5-65" data-name="Line 5" x2="25" transform="translate(68.5 1120.5)" fill="none" stroke="#282828" stroke-width="1"/>
    </g>
    <g transform="translate(-68.5 570)">
      <line id="Line_5-66" data-name="Line 5" x2="25" transform="translate(68.5 1120.5)" fill="none" stroke="#282828" stroke-width="1"/>
    </g>
    <g transform="translate(-68.5 596)">
      <line id="Line_5-67" data-name="Line 5" x2="25" transform="translate(68.5 1120.5)" fill="none" stroke="#282828" stroke-width="1"/>
    </g>
    <g transform="translate(-68.5 622)">
      <line id="Line_5-68" data-name="Line 5" x2="25" transform="translate(68.5 1120.5)" fill="none" stroke="#282828" stroke-width="1"/>
    </g>
    <g transform="translate(-68.5 648)">
      <line id="Line_5-69" data-name="Line 5" x2="25" transform="translate(68.5 1120.5)" fill="none" stroke="#282828" stroke-width="1"/>
    </g>
    <g transform="translate(-68.5 674)">
      <line id="Line_5-70" data-name="Line 5" x2="25" transform="translate(68.5 1120.5)" fill="none" stroke="#282828" stroke-width="1"/>
    </g>
    <g transform="translate(-68.5 700)">
      <line id="Line_5-71" data-name="Line 5" x2="25" transform="translate(68.5 1120.5)" fill="none" stroke="#282828" stroke-width="1"/>
    </g>
    <g transform="translate(-68.5 726)">
      <line id="Line_5-72" data-name="Line 5" x2="25" transform="translate(68.5 1120.5)" fill="none" stroke="#282828" stroke-width="1"/>
    </g>
    <g transform="translate(-68.5 752)">
      <line id="Line_5-73" data-name="Line 5" x2="25" transform="translate(68.5 1120.5)" fill="none" stroke="#282828" stroke-width="1"/>
    </g>
    <g transform="translate(-68.5 778)">
      <line id="Line_5-74" data-name="Line 5" x2="25" transform="translate(68.5 1120.5)" fill="none" stroke="#282828" stroke-width="1"/>
    </g>
    <g transform="translate(-68.5 804)">
      <line id="Line_5-75" data-name="Line 5" x2="25" transform="translate(68.5 1120.5)" fill="none" stroke="#282828" stroke-width="1"/>
    </g>
    <g transform="translate(-68.5 830)">
      <line id="Line_5-76" data-name="Line 5" x2="25" transform="translate(68.5 1120.5)" fill="none" stroke="#282828" stroke-width="1"/>
    </g>
    <g transform="translate(-68.5 856)">
      <line id="Line_5-77" data-name="Line 5" x2="25" transform="translate(68.5 1120.5)" fill="none" stroke="#282828" stroke-width="1"/>
    </g>
    <g transform="translate(-68.5 882)">
      <line id="Line_5-78" data-name="Line 5" x2="25" transform="translate(68.5 1120.5)" fill="none" stroke="#282828" stroke-width="1"/>
    </g>
    <g transform="translate(-68.5 908)">
      <line id="Line_5-79" data-name="Line 5" x2="25" transform="translate(68.5 1120.5)" fill="none" stroke="#282828" stroke-width="1"/>
    </g>
    <g transform="translate(-68.5 934)">
      <line id="Line_5-80" data-name="Line 5" x2="25" transform="translate(68.5 1120.5)" fill="none" stroke="#282828" stroke-width="1"/>
    </g>
    <g transform="translate(-68.5 960)">
      <line id="Line_5-81" data-name="Line 5" x2="25" transform="translate(68.5 1120.5)" fill="none" stroke="#282828" stroke-width="1"/>
    </g>
    <g transform="translate(-68.5 986)">
      <line id="Line_5-82" data-name="Line 5" x2="25" transform="translate(68.5 1120.5)" fill="none" stroke="#282828" stroke-width="1"/>
    </g>
    <g transform="translate(-68.5 1012)">
      <line id="Line_5-83" data-name="Line 5" x2="25" transform="translate(68.5 1120.5)" fill="none" stroke="#282828" stroke-width="1"/>
    </g>
    <g transform="translate(-68.5 1038)">
      <line id="Line_5-84" data-name="Line 5" x2="25" transform="translate(68.5 1120.5)" fill="none" stroke="#282828" stroke-width="1"/>
    </g>
    <g transform="translate(-68.5 1064)">
      <line id="Line_5-85" data-name="Line 5" x2="25" transform="translate(68.5 1120.5)" fill="none" stroke="#282828" stroke-width="1"/>
    </g>
    <g transform="translate(-68.5 1090)">
      <line id="Line_5-86" data-name="Line 5" x2="25" transform="translate(68.5 1120.5)" fill="none" stroke="#282828" stroke-width="1"/>
    </g>
  </g>
</svg>
